<?xml version="1.0" encoding="utf-8"?>
<!-- Generator: Adobe Illustrator 21.1.0, SVG Export Plug-In . SVG Version: 6.00 Build 0)  -->
<svg version="1.1" id="Layer_1" xmlns="http://www.w3.org/2000/svg" xmlns:xlink="http://www.w3.org/1999/xlink" x="0px" y="0px"
	 viewBox="0 0 1920 1080" style="enable-background:new 0 0 1920 1080;" xml:space="preserve">
<style type="text/css">
	.st0{fill:url(#SVGID_1_);}
	.st1{fill:#14C0D7;}
	.st2{opacity:0.2;fill:#FFFFFF;}
	.st3{fill:#354D5E;}
	.st4{fill:#ACAEAF;}
	.st5{fill:#D3D3D3;}
	.st6{opacity:0.1;fill:#FFFFFF;}
	.st7{opacity:0.33;}
	.st8{fill:#FFFFFF;}
	.st9{opacity:0.38;}
	.st10{fill:url(#SVGID_2_);}
</style>
<linearGradient id="SVGID_1_" gradientUnits="userSpaceOnUse" x1="1738.75" y1="1321.25" x2="187.25" y2="-230.25" gradientTransform="matrix(-1 0 0 -1 1926 1091)">
	<stop  offset="0" style="stop-color:#1B2B4B"/>
	<stop  offset="0.5014" style="stop-color:#152744"/>
	<stop  offset="1" style="stop-color:#0E233A"/>
</linearGradient>
<polygon class="st0" points="-25,-18 1951,-18 1951,1109 -25,1109 "/>
<g>
	<ellipse transform="matrix(0.7071 -0.7071 0.7071 0.7071 23.8579 21.598)" class="st6" cx="38" cy="-18" rx="598" ry="598"/>
	<g>
		<ellipse transform="matrix(0.7071 -0.7071 0.7071 0.7071 23.8579 21.598)" class="st1" cx="38" cy="-18" rx="543.6" ry="543.6"/>
	</g>
	<g class="st7">
		<path class="st8" d="M422.4,366.4c-210.5,210.5-550.6,212.3-763.3,5.5c214.1,169.8,526.2,155.8,724.1-42.1
			C589.6,123.3,596-207.4,402.3-421.5c6.8,6.2,13.5,12.5,20.1,19.1C634.7-190.1,634.7,154.1,422.4,366.4z"/>
	</g>
</g>
<g>
	<path class="st5" d="M101,668h21.2c1.3,0,2.4,0.5,3.3,1.4c0.9,0.9,1.4,2.1,1.5,3.4v4.7c-0.1,1.3-0.6,2.5-1.5,3.4
		c-0.9,0.9-2,1.4-3.3,1.4l-21.2,0v21.2c0,1.3-0.5,2.4-1.4,3.3c-0.9,0.9-2.1,1.4-3.4,1.5l-4.7,0c-1.3-0.1-2.5-0.6-3.4-1.5
		c-0.9-0.9-1.4-2-1.4-3.3v-21.2H65.6c-1.3,0-2.4-0.5-3.3-1.4c-0.9-0.9-1.4-2.1-1.5-3.4v-4.7c0.1-1.3,0.6-2.5,1.5-3.4
		c0.9-0.9,2-1.4,3.3-1.4l21.2,0l0-21.2c0-1.3,0.5-2.4,1.4-3.3c0.9-0.9,2.1-1.4,3.4-1.5h4.7c1.3,0.1,2.5,0.6,3.4,1.5
		c0.9,0.9,1.4,2,1.4,3.3V668z"/>
</g>
<g class="st9">
	<path class="st5" d="M1742.5,206.4h16.8c1,0,1.9,0.4,2.6,1.1c0.7,0.7,1.1,1.6,1.2,2.7v3.7c-0.1,1.1-0.4,2-1.2,2.7
		c-0.7,0.7-1.6,1.1-2.6,1.1l-16.8,0v16.8c0,1-0.4,1.9-1.1,2.6s-1.6,1.1-2.7,1.2h-3.7c-1.1-0.1-2-0.4-2.7-1.2
		c-0.7-0.7-1.1-1.6-1.1-2.6v-16.8h-16.8c-1,0-1.9-0.4-2.6-1.1c-0.7-0.7-1.1-1.6-1.2-2.7v-3.7c0.1-1.1,0.4-2,1.2-2.7s1.6-1.1,2.6-1.1
		l16.8,0l0-16.8c0-1,0.4-1.9,1.1-2.6c0.7-0.7,1.6-1.1,2.7-1.2h3.7c1.1,0.1,2,0.4,2.7,1.2c0.7,0.7,1.1,1.6,1.1,2.6V206.4z"/>
</g>
<g>
	<path class="st5" d="M130.5,754.4h16.8c1,0,1.9,0.4,2.6,1.1c0.7,0.7,1.1,1.6,1.2,2.7v3.7c-0.1,1.1-0.4,2-1.2,2.7
		c-0.7,0.7-1.6,1.1-2.6,1.1l-16.8,0v16.8c0,1-0.4,1.9-1.1,2.6s-1.6,1.1-2.7,1.2h-3.7c-1.1-0.1-2-0.4-2.7-1.2
		c-0.7-0.7-1.1-1.6-1.1-2.6v-16.8h-16.8c-1,0-1.9-0.4-2.6-1.1c-0.7-0.7-1.1-1.6-1.2-2.7v-3.7c0.1-1.1,0.4-2,1.2-2.7s1.6-1.1,2.6-1.1
		l16.8,0l0-16.8c0-1,0.4-1.9,1.1-2.6c0.7-0.7,1.6-1.1,2.7-1.2h3.7c1.1,0.1,2,0.4,2.7,1.2c0.7,0.7,1.1,1.6,1.1,2.6V754.4z"/>
</g>
<g>
	<path class="st5" d="M756,205h21.2c1.3,0,2.4,0.5,3.3,1.4c0.9,0.9,1.4,2.1,1.5,3.4v4.7c-0.1,1.3-0.6,2.5-1.5,3.4
		c-0.9,0.9-2,1.4-3.3,1.4l-21.2,0v21.2c0,1.3-0.5,2.4-1.4,3.3c-0.9,0.9-2.1,1.4-3.4,1.5l-4.7,0c-1.3-0.1-2.5-0.6-3.4-1.5
		c-0.9-0.9-1.4-2-1.4-3.3v-21.2h-21.2c-1.3,0-2.4-0.5-3.3-1.4c-0.9-0.9-1.4-2.1-1.5-3.4v-4.7c0.1-1.3,0.6-2.5,1.5-3.4s2-1.4,3.3-1.4
		l21.2,0l0-21.2c0-1.3,0.5-2.4,1.4-3.3c0.9-0.9,2.1-1.4,3.4-1.5h4.7c1.3,0.1,2.5,0.6,3.4,1.5c0.9,0.9,1.4,2,1.4,3.3V205z"/>
</g>
<g>
	<path class="st5" d="M681.5,257.4h16.8c1,0,1.9,0.4,2.6,1.1c0.7,0.7,1.1,1.6,1.2,2.7v3.7c-0.1,1.1-0.4,2-1.2,2.7
		c-0.7,0.7-1.6,1.1-2.6,1.1l-16.8,0v16.8c0,1-0.4,1.9-1.1,2.6s-1.6,1.1-2.7,1.2h-3.7c-1.1-0.1-2-0.4-2.7-1.2
		c-0.7-0.7-1.1-1.6-1.1-2.6v-16.8h-16.8c-1,0-1.9-0.4-2.6-1.1c-0.7-0.7-1.1-1.6-1.2-2.7v-3.7c0.1-1.1,0.4-2,1.2-2.7s1.6-1.1,2.6-1.1
		l16.8,0l0-16.8c0-1,0.4-1.9,1.1-2.6c0.7-0.7,1.6-1.1,2.7-1.2h3.7c1.1,0.1,2,0.4,2.7,1.2c0.7,0.7,1.1,1.6,1.1,2.6V257.4z"/>
</g>
<g class="st9">
	<path class="st5" d="M707.5,131.4h16.8c1,0,1.9,0.4,2.6,1.1c0.7,0.7,1.1,1.6,1.2,2.7v3.7c-0.1,1.1-0.4,2-1.2,2.7
		c-0.7,0.7-1.6,1.1-2.6,1.1l-16.8,0v16.8c0,1-0.4,1.9-1.1,2.6s-1.6,1.1-2.7,1.2h-3.7c-1.1-0.1-2-0.4-2.7-1.2
		c-0.7-0.7-1.1-1.6-1.1-2.6v-16.8h-16.8c-1,0-1.9-0.4-2.6-1.1c-0.7-0.7-1.1-1.6-1.2-2.7v-3.7c0.1-1.1,0.4-2,1.2-2.7s1.6-1.1,2.6-1.1
		l16.8,0l0-16.8c0-1,0.4-1.9,1.1-2.6c0.7-0.7,1.6-1.1,2.7-1.2h3.7c1.1,0.1,2,0.4,2.7,1.2c0.7,0.7,1.1,1.6,1.1,2.6V131.4z"/>
</g>
<g>
	<path class="st5" d="M1704,285h21.2c1.3,0,2.4,0.5,3.3,1.4c0.9,0.9,1.4,2.1,1.5,3.4v4.7c-0.1,1.3-0.6,2.5-1.5,3.4
		c-0.9,0.9-2,1.4-3.3,1.4l-21.2,0v21.2c0,1.3-0.5,2.4-1.4,3.3s-2.1,1.4-3.4,1.5l-4.7,0c-1.3-0.1-2.5-0.6-3.4-1.5
		c-0.9-0.9-1.4-2-1.4-3.3v-21.2h-21.2c-1.3,0-2.4-0.5-3.3-1.4c-0.9-0.9-1.4-2.1-1.5-3.4v-4.7c0.1-1.3,0.6-2.5,1.5-3.4
		c0.9-0.9,2-1.4,3.3-1.4l21.2,0l0-21.2c0-1.3,0.5-2.4,1.4-3.3c0.9-0.9,2.1-1.4,3.4-1.5h4.7c1.3,0.1,2.5,0.6,3.4,1.5
		c0.9,0.9,1.4,2,1.4,3.3V285z"/>
</g>
<g>
	<path class="st5" d="M1777,796h21.2c1.3,0,2.4,0.5,3.3,1.4c0.9,0.9,1.4,2.1,1.5,3.4v4.7c-0.1,1.3-0.6,2.5-1.5,3.4
		c-0.9,0.9-2,1.4-3.3,1.4l-21.2,0v21.2c0,1.3-0.5,2.4-1.4,3.3s-2.1,1.4-3.4,1.5l-4.7,0c-1.3-0.1-2.5-0.6-3.4-1.5
		c-0.9-0.9-1.4-2-1.4-3.3v-21.2h-21.2c-1.3,0-2.4-0.5-3.3-1.4c-0.9-0.9-1.4-2.1-1.5-3.4v-4.7c0.1-1.3,0.6-2.5,1.5-3.4
		c0.9-0.9,2-1.4,3.3-1.4l21.2,0l0-21.2c0-1.3,0.5-2.4,1.4-3.3c0.9-0.9,2.1-1.4,3.4-1.5h4.7c1.3,0.1,2.5,0.6,3.4,1.5
		c0.9,0.9,1.4,2,1.4,3.3V796z"/>
</g>
<g>
	<path class="st5" d="M1702.5,848.4h16.8c1,0,1.9,0.4,2.6,1.1c0.7,0.7,1.1,1.6,1.2,2.7v3.7c-0.1,1.1-0.4,2-1.2,2.7
		c-0.7,0.7-1.6,1.1-2.6,1.1l-16.8,0v16.8c0,1-0.4,1.9-1.1,2.6s-1.6,1.1-2.7,1.2h-3.7c-1.1-0.1-2-0.4-2.7-1.2
		c-0.7-0.7-1.1-1.6-1.1-2.6v-16.8h-16.8c-1,0-1.9-0.4-2.6-1.1c-0.7-0.7-1.1-1.6-1.2-2.7v-3.7c0.1-1.1,0.4-2,1.2-2.7s1.6-1.1,2.6-1.1
		l16.8,0l0-16.8c0-1,0.4-1.9,1.1-2.6c0.7-0.7,1.6-1.1,2.7-1.2h3.7c1.1,0.1,2,0.4,2.7,1.2c0.7,0.7,1.1,1.6,1.1,2.6V848.4z"/>
</g>
<g class="st9">
	<path class="st5" d="M587.5,907.4h16.8c1,0,1.9,0.4,2.6,1.1c0.7,0.7,1.1,1.6,1.2,2.7v3.7c-0.1,1.1-0.4,2-1.2,2.7
		c-0.7,0.7-1.6,1.1-2.6,1.1l-16.8,0v16.8c0,1-0.4,1.9-1.1,2.6s-1.6,1.1-2.7,1.2h-3.7c-1.1-0.1-2-0.4-2.7-1.2
		c-0.7-0.7-1.1-1.6-1.1-2.6v-16.8h-16.8c-1,0-1.9-0.4-2.6-1.1c-0.7-0.7-1.1-1.6-1.2-2.7v-3.7c0.1-1.1,0.4-2,1.2-2.7s1.6-1.1,2.6-1.1
		l16.8,0l0-16.8c0-1,0.4-1.9,1.1-2.6c0.7-0.7,1.6-1.1,2.7-1.2h3.7c1.1,0.1,2,0.4,2.7,1.2c0.7,0.7,1.1,1.6,1.1,2.6V907.4z"/>
</g>
</svg>
