<?xml version="1.0" encoding="utf-8"?>
<!-- Generator: Adobe Illustrator 21.1.0, SVG Export Plug-In . SVG Version: 6.00 Build 0)  -->
<svg version="1.1" id="Layer_1" xmlns="http://www.w3.org/2000/svg" xmlns:xlink="http://www.w3.org/1999/xlink" x="0px" y="0px"
	 viewBox="0 0 1080 1920" style="enable-background:new 0 0 1080 1920;" xml:space="preserve">
<style type="text/css">
	.st0{fill:url(#SVGID_1_);}
	.st1{fill:#14C0D7;}
	.st2{opacity:0.2;fill:#FFFFFF;}
	.st3{fill:#354D5E;}
	.st4{fill:#ACAEAF;}
	.st5{fill:#D3D3D3;}
	.st6{opacity:0.1;fill:#FFFFFF;}
	.st7{opacity:0.33;}
	.st8{fill:#FFFFFF;}
	.st9{opacity:0.38;}
	.st10{fill:url(#SVGID_2_);}
</style>
<linearGradient id="SVGID_1_" gradientUnits="userSpaceOnUse" x1="1537" y1="962.5" x2="-539" y2="962.5" gradientTransform="matrix(-6.123234e-17 -1 1 -6.123234e-17 -423 1403)">
	<stop  offset="0" style="stop-color:#1B2B4B"/>
	<stop  offset="0.5014" style="stop-color:#152744"/>
	<stop  offset="1" style="stop-color:#0E233A"/>
</linearGradient>
<polygon class="st0" points="1129,-134 1129,1942 -50,1942 -50,-134 "/>
<g>
	<circle class="st6" cx="540" cy="46" r="598"/>
	<g>
		<circle class="st1" cx="540" cy="46" r="543.6"/>
	</g>
	<g class="st7">
		<path class="st8" d="M540,589.6C242.4,589.6,0.6,350.4-3.6,53.8C27.7,325.2,258.3,536,538.2,536c291.9,0,530.3-229.3,544.7-517.7
			c0.5,9.2,0.7,18.4,0.7,27.7C1083.6,346.2,840.2,589.6,540,589.6z"/>
	</g>
</g>
<g class="st9">
	<path class="st5" d="M133.5,535.4h16.8c1,0,1.9,0.4,2.6,1.1c0.7,0.7,1.1,1.6,1.2,2.7v3.7c-0.1,1.1-0.4,2-1.2,2.7
		c-0.7,0.7-1.6,1.1-2.6,1.1l-16.8,0l0,16.8c0,1-0.4,1.9-1.1,2.6s-1.6,1.1-2.7,1.2l-3.7,0c-1.1-0.1-2-0.4-2.7-1.2
		c-0.7-0.7-1.1-1.6-1.1-2.6v-16.8h-16.8c-1,0-1.9-0.4-2.6-1.1c-0.7-0.7-1.1-1.6-1.2-2.7l0-3.7c0.1-1.1,0.4-2,1.2-2.7
		s1.6-1.1,2.6-1.1l16.8,0l0-16.8c0-1,0.4-1.9,1.1-2.6c0.7-0.7,1.6-1.1,2.7-1.2h3.7c1.1,0.1,2,0.4,2.7,1.2c0.7,0.7,1.1,1.6,1.1,2.6
		V535.4z"/>
</g>
<g class="st9">
	<path class="st5" d="M1001.5,880.4h16.8c1,0,1.9,0.4,2.6,1.1c0.7,0.7,1.1,1.6,1.2,2.7v3.7c-0.1,1.1-0.4,2-1.2,2.7
		c-0.7,0.7-1.6,1.1-2.6,1.1l-16.8,0v16.8c0,1-0.4,1.9-1.1,2.6s-1.6,1.1-2.7,1.2l-3.7,0c-1.1-0.1-2-0.4-2.7-1.2
		c-0.7-0.7-1.1-1.6-1.1-2.6v-16.8h-16.8c-1,0-1.9-0.4-2.6-1.1c-0.7-0.7-1.1-1.6-1.2-2.7v-3.7c0.1-1.1,0.4-2,1.2-2.7s1.6-1.1,2.6-1.1
		l16.8,0l0-16.8c0-1,0.4-1.9,1.1-2.6c0.7-0.7,1.6-1.1,2.7-1.2h3.7c1.1,0.1,2,0.4,2.7,1.2c0.7,0.7,1.1,1.6,1.1,2.6V880.4z"/>
</g>
<g class="st9">
	<path class="st5" d="M73.5,499.4h16.8c1,0,1.9,0.4,2.6,1.1c0.7,0.7,1.1,1.6,1.2,2.7v3.7c-0.1,1.1-0.4,2-1.2,2.7
		c-0.7,0.7-1.6,1.1-2.6,1.1l-16.8,0l0,16.8c0,1-0.4,1.9-1.1,2.6s-1.6,1.1-2.7,1.2l-3.7,0c-1.1-0.1-2-0.4-2.7-1.2
		c-0.7-0.7-1.1-1.6-1.1-2.6v-16.8H45.5c-1,0-1.9-0.4-2.6-1.1c-0.7-0.7-1.1-1.6-1.2-2.7l0-3.7c0.1-1.1,0.4-2,1.2-2.7s1.6-1.1,2.6-1.1
		l16.8,0l0-16.8c0-1,0.4-1.9,1.1-2.6c0.7-0.7,1.6-1.1,2.7-1.2h3.7c1.1,0.1,2,0.4,2.7,1.2c0.7,0.7,1.1,1.6,1.1,2.6V499.4z"/>
</g>
<g class="st9">
	<path class="st5" d="M1045.5,949.4h16.8c1,0,1.9,0.4,2.6,1.1c0.7,0.7,1.1,1.6,1.2,2.7v3.7c-0.1,1.1-0.4,2-1.2,2.7
		c-0.7,0.7-1.6,1.1-2.6,1.1l-16.8,0v16.8c0,1-0.4,1.9-1.1,2.6s-1.6,1.1-2.7,1.2h-3.7c-1.1-0.1-2-0.4-2.7-1.2
		c-0.7-0.7-1.1-1.6-1.1-2.6v-16.8h-16.8c-1,0-1.9-0.4-2.6-1.1c-0.7-0.7-1.1-1.6-1.2-2.7v-3.7c0.1-1.1,0.4-2,1.2-2.7s1.6-1.1,2.6-1.1
		l16.8,0l0-16.8c0-1,0.4-1.9,1.1-2.6c0.7-0.7,1.6-1.1,2.7-1.2h3.7c1.1,0.1,2,0.4,2.7,1.2c0.7,0.7,1.1,1.6,1.1,2.6V949.4z"/>
</g>
<g class="st9">
	<path class="st5" d="M169.5,1176.4h16.8c1,0,1.9,0.4,2.6,1.1c0.7,0.7,1.1,1.6,1.2,2.7v3.7c-0.1,1.1-0.4,2-1.2,2.7
		c-0.7,0.7-1.6,1.1-2.6,1.1l-16.8,0l0,16.8c0,1-0.4,1.9-1.1,2.6s-1.6,1.1-2.7,1.2h-3.7c-1.1-0.1-2-0.4-2.7-1.2
		c-0.7-0.7-1.1-1.6-1.1-2.6v-16.8h-16.8c-1,0-1.9-0.4-2.6-1.1c-0.7-0.7-1.1-1.6-1.2-2.7l0-3.7c0.1-1.1,0.4-2,1.2-2.7
		s1.6-1.1,2.6-1.1l16.8,0l0-16.8c0-1,0.4-1.9,1.1-2.6c0.7-0.7,1.6-1.1,2.7-1.2h3.7c1.1,0.1,2,0.4,2.7,1.2c0.7,0.7,1.1,1.6,1.1,2.6
		V1176.4z"/>
</g>
<g class="st9">
	<path class="st5" d="M889.5,1470.4h16.8c1,0,1.9,0.4,2.6,1.1c0.7,0.7,1.1,1.6,1.2,2.7v3.7c-0.1,1.1-0.4,2-1.2,2.7s-1.6,1.1-2.6,1.1
		l-16.8,0v16.8c0,1-0.4,1.9-1.1,2.6s-1.6,1.1-2.7,1.2h-3.7c-1.1-0.1-2-0.4-2.7-1.2c-0.7-0.7-1.1-1.6-1.1-2.6v-16.8h-16.8
		c-1,0-1.9-0.4-2.6-1.1c-0.7-0.7-1.1-1.6-1.2-2.7v-3.7c0.1-1.1,0.4-2,1.2-2.7s1.6-1.1,2.6-1.1l16.8,0l0-16.8c0-1,0.4-1.9,1.1-2.6
		s1.6-1.1,2.7-1.2h3.7c1.1,0.1,2,0.4,2.7,1.2c0.7,0.7,1.1,1.6,1.1,2.6V1470.4z"/>
</g>
</svg>
