<?xml version="1.0" encoding="utf-8"?>
<!-- Generator: Adobe Illustrator 21.1.0, SVG Export Plug-In . SVG Version: 6.00 Build 0)  -->
<svg version="1.1" id="Layer_1" xmlns="http://www.w3.org/2000/svg" xmlns:xlink="http://www.w3.org/1999/xlink" x="0px" y="0px"
	 viewBox="0 0 1080 1920" style="enable-background:new 0 0 1080 1920;" xml:space="preserve">
<style type="text/css">
	.st0{fill:#354D5E;}
	.st1{fill:#14C0D7;}
	.st2{opacity:0.2;fill:#FFFFFF;}
	.st3{fill:#ACAEAF;}
	.st4{fill:#D3D3D3;}
	.st5{opacity:0.1;fill:#FFFFFF;}
	.st6{opacity:0.33;}
	.st7{fill:#FFFFFF;}
</style>
<rect x="-41" y="-54" class="st0" width="1179" height="2015"/>
<g>
	<circle class="st5" cx="540" cy="46" r="598"/>
	<g>
		<circle class="st1" cx="540" cy="46" r="543.6"/>
	</g>
	<g class="st6">
		<path class="st7" d="M540,589.6C242.4,589.6,0.6,350.4-3.6,53.8C27.7,325.2,258.3,536,538.2,536c291.9,0,530.3-229.3,544.7-517.7
			c0.5,9.2,0.7,18.4,0.7,27.7C1083.6,346.2,840.2,589.6,540,589.6z"/>
	</g>
</g>
<g>
	<path class="st4" d="M92.1,551.9h28.8c1.7,0,3.2,0.6,4.5,1.9s1.9,2.8,2,4.6v6.3c-0.1,1.8-0.8,3.4-2,4.6s-2.7,1.9-4.5,1.9H92.1
		l0,28.8c0,1.7-0.6,3.2-1.9,4.5c-1.2,1.2-2.8,1.9-4.6,2h-6.3c-1.8-0.1-3.4-0.8-4.6-2s-1.9-2.7-1.9-4.5v-28.8H44
		c-1.7,0-3.2-0.6-4.5-1.9c-1.2-1.2-1.9-2.8-2-4.6l0-6.3c0.1-1.8,0.8-3.4,2-4.6c1.2-1.2,2.7-1.9,4.5-1.9l28.8,0v-28.8
		c0-1.7,0.6-3.2,1.9-4.5s2.8-1.9,4.6-2l6.3,0c1.8,0.1,3.4,0.8,4.6,2c1.2,1.2,1.9,2.7,1.9,4.5V551.9z"/>
</g>
<g>
	<path class="st4" d="M154.5,607.4h16.8c1,0,1.9,0.4,2.6,1.1c0.7,0.7,1.1,1.6,1.2,2.7v3.7c-0.1,1.1-0.4,2-1.2,2.7
		c-0.7,0.7-1.6,1.1-2.6,1.1l-16.8,0l0,16.8c0,1-0.4,1.9-1.1,2.6s-1.6,1.1-2.7,1.2l-3.7,0c-1.1-0.1-2-0.4-2.7-1.2
		c-0.7-0.7-1.1-1.6-1.1-2.6v-16.8h-16.8c-1,0-1.9-0.4-2.6-1.1c-0.7-0.7-1.1-1.6-1.2-2.7l0-3.7c0.1-1.1,0.4-2,1.2-2.7
		s1.6-1.1,2.6-1.1l16.8,0l0-16.8c0-1,0.4-1.9,1.1-2.6c0.7-0.7,1.6-1.1,2.7-1.2h3.7c1.1,0.1,2,0.4,2.7,1.2c0.7,0.7,1.1,1.6,1.1,2.6
		V607.4z"/>
</g>
<g>
	<path class="st4" d="M1005.1,1649.9h28.8c1.7,0,3.2,0.6,4.5,1.9c1.2,1.2,1.9,2.8,2,4.6v6.3c-0.1,1.8-0.8,3.4-2,4.6
		c-1.2,1.2-2.7,1.9-4.5,1.9h-28.8v28.8c0,1.7-0.6,3.2-1.9,4.5s-2.8,1.9-4.6,2h-6.3c-1.8-0.1-3.4-0.8-4.6-2s-1.9-2.7-1.9-4.5v-28.8
		H957c-1.7,0-3.2-0.6-4.5-1.9c-1.2-1.2-1.9-2.8-2-4.6v-6.3c0.1-1.8,0.8-3.4,2-4.6c1.2-1.2,2.7-1.9,4.5-1.9h28.8v-28.8
		c0-1.7,0.6-3.2,1.9-4.5s2.8-1.9,4.6-2h6.3c1.8,0.1,3.4,0.8,4.6,2c1.2,1.2,1.9,2.7,1.9,4.5V1649.9z"/>
</g>
<g>
	<path class="st4" d="M1001.5,553.4h16.8c1,0,1.9,0.4,2.6,1.1c0.7,0.7,1.1,1.6,1.2,2.7v3.7c-0.1,1.1-0.4,2-1.2,2.7
		c-0.7,0.7-1.6,1.1-2.6,1.1l-16.8,0v16.8c0,1-0.4,1.9-1.1,2.6s-1.6,1.1-2.7,1.2l-3.7,0c-1.1-0.1-2-0.4-2.7-1.2
		c-0.7-0.7-1.1-1.6-1.1-2.6v-16.8h-16.8c-1,0-1.9-0.4-2.6-1.1c-0.7-0.7-1.1-1.6-1.2-2.7v-3.7c0.1-1.1,0.4-2,1.2-2.7s1.6-1.1,2.6-1.1
		l16.8,0l0-16.8c0-1,0.4-1.9,1.1-2.6c0.7-0.7,1.6-1.1,2.7-1.2h3.7c1.1,0.1,2,0.4,2.7,1.2c0.7,0.7,1.1,1.6,1.1,2.6V553.4z"/>
</g>
<g>
	<path class="st4" d="M961.5,1753.4h16.8c1,0,1.9,0.4,2.6,1.1c0.7,0.7,1.1,1.6,1.2,2.7v3.7c-0.1,1.1-0.4,2-1.2,2.7s-1.6,1.1-2.6,1.1
		l-16.8,0v16.8c0,1-0.4,1.9-1.1,2.6s-1.6,1.1-2.7,1.2h-3.7c-1.1-0.1-2-0.4-2.7-1.2c-0.7-0.7-1.1-1.6-1.1-2.6v-16.8h-16.8
		c-1,0-1.9-0.4-2.6-1.1c-0.7-0.7-1.1-1.6-1.2-2.7v-3.7c0.1-1.1,0.4-2,1.2-2.7s1.6-1.1,2.6-1.1l16.8,0l0-16.8c0-1,0.4-1.9,1.1-2.6
		s1.6-1.1,2.7-1.2h3.7c1.1,0.1,2,0.4,2.7,1.2c0.7,0.7,1.1,1.6,1.1,2.6V1753.4z"/>
</g>
<g>
	<path class="st4" d="M73.5,1846.4h16.8c1,0,1.9,0.4,2.6,1.1c0.7,0.7,1.1,1.6,1.2,2.7v3.7c-0.1,1.1-0.4,2-1.2,2.7
		c-0.7,0.7-1.6,1.1-2.6,1.1l-16.8,0l0,16.8c0,1-0.4,1.9-1.1,2.6s-1.6,1.1-2.7,1.2h-3.7c-1.1-0.1-2-0.4-2.7-1.2
		c-0.7-0.7-1.1-1.6-1.1-2.6v-16.8H45.5c-1,0-1.9-0.4-2.6-1.1c-0.7-0.7-1.1-1.6-1.2-2.7l0-3.7c0.1-1.1,0.4-2,1.2-2.7s1.6-1.1,2.6-1.1
		l16.8,0l0-16.8c0-1,0.4-1.9,1.1-2.6c0.7-0.7,1.6-1.1,2.7-1.2h3.7c1.1,0.1,2,0.4,2.7,1.2c0.7,0.7,1.1,1.6,1.1,2.6V1846.4z"/>
</g>
</svg>
