<?xml version="1.0" encoding="utf-8"?>
<!-- Generator: Adobe Illustrator 21.1.0, SVG Export Plug-In . SVG Version: 6.00 Build 0)  -->
<svg version="1.1" id="Layer_1" xmlns="http://www.w3.org/2000/svg" xmlns:xlink="http://www.w3.org/1999/xlink" x="0px" y="0px"
	 viewBox="0 0 1080 1920" style="enable-background:new 0 0 1080 1920;" xml:space="preserve">
<style type="text/css">
	.st0{fill:url(#SVGID_1_);}
	.st1{fill:#14C0D7;}
	.st2{opacity:0.2;fill:#FFFFFF;}
	.st3{fill:#354D5E;}
	.st4{fill:#ACAEAF;}
	.st5{fill:#D3D3D3;}
	.st6{opacity:0.1;fill:#FFFFFF;}
	.st7{opacity:0.33;}
	.st8{fill:#FFFFFF;}
	.st9{opacity:0.38;fill:#D3D3D3;}
	.st10{font-family:'FontAwesome5FreeSolid';}
	.st11{font-size:60.7302px;}
	.st12{fill:url(#SVGID_2_);}
	.st13{opacity:0.38;}
</style>
<linearGradient id="SVGID_1_" gradientUnits="userSpaceOnUse" x1="-491" y1="953.5" x2="1588" y2="953.5" gradientTransform="matrix(6.123234e-17 1 -1 6.123234e-17 1502 405)">
	<stop  offset="0" style="stop-color:#1B2B4B"/>
	<stop  offset="0.3168" style="stop-color:#152744"/>
	<stop  offset="0.364" style="stop-color:#142743"/>
	<stop  offset="1" style="stop-color:#0E233A"/>
</linearGradient>
<polygon class="st0" points="-73,1993 -73,-86 1170,-86 1170,1993 "/>
<g>
	<circle class="st6" cx="540" cy="46" r="598"/>
	<g>
		<circle class="st1" cx="540" cy="46" r="543.6"/>
	</g>
	<g class="st7">
		<path class="st8" d="M540,589.6C242.4,589.6,0.6,350.4-3.6,53.8C27.7,325.2,258.3,536,538.2,536c291.9,0,530.3-229.3,544.7-517.7
			c0.5,9.2,0.7,18.4,0.7,27.7C1083.6,346.2,840.2,589.6,540,589.6z"/>
	</g>
</g>
<text transform="matrix(0.7071 -0.7071 0.7071 0.7071 129.2378 571.9323)" class="st9 st10 st11">times</text>
<text transform="matrix(0.7071 -0.7071 0.7071 0.7071 965.2379 916.9323)" class="st9 st10 st11">times</text>
<text transform="matrix(0.7071 -0.7071 0.7071 0.7071 69.2378 535.9323)" class="st9 st10 st11">times</text>
<text transform="matrix(0.7071 -0.7071 0.7071 0.7071 989.2379 985.9323)" class="st9 st10 st11">times</text>
<text transform="matrix(0.7071 -0.7071 0.7071 0.7071 165.2378 1212.9323)" class="st9 st10 st11">times</text>
<text transform="matrix(0.7071 -0.7071 0.7071 0.7071 906.2379 1458.9323)" class="st9 st10 st11">times</text>
<text transform="matrix(0.7071 -0.7071 0.7071 0.7071 830.2379 1585.9323)" class="st9 st10 st11">times</text>
<text transform="matrix(0.7071 -0.7071 0.7071 0.7071 830.2379 1348.9323)" class="st9 st10 st11">times</text>
</svg>
