<?xml version="1.0" encoding="utf-8"?>
<!-- Generator: Adobe Illustrator 21.1.0, SVG Export Plug-In . SVG Version: 6.00 Build 0)  -->
<svg version="1.1" id="Layer_1" xmlns="http://www.w3.org/2000/svg" xmlns:xlink="http://www.w3.org/1999/xlink" x="0px" y="0px"
	 viewBox="0 0 1920 1080" style="enable-background:new 0 0 1920 1080;" xml:space="preserve">
<style type="text/css">
	.st0{fill:url(#SVGID_1_);}
	.st1{fill:#14C0D7;}
	.st2{opacity:0.2;fill:#FFFFFF;}
	.st3{fill:#354D5E;}
	.st4{fill:#ACAEAF;}
	.st5{fill:#D3D3D3;}
	.st6{opacity:0.1;fill:#FFFFFF;}
	.st7{opacity:0.33;}
	.st8{fill:#FFFFFF;}
	.st9{opacity:0.38;}
	.st10{fill:url(#SVGID_2_);}
	.st11{font-family:'FontAwesome5FreeSolid';}
	.st12{font-size:60.7302px;}
	.st13{font-size:86.5164px;}
	.st14{opacity:0.38;fill:#D3D3D3;}
</style>
<linearGradient id="SVGID_1_" gradientUnits="userSpaceOnUse" x1="-55" y1="559" x2="2027" y2="559">
	<stop  offset="0" style="stop-color:#1B2B4B"/>
	<stop  offset="0.3168" style="stop-color:#152744"/>
	<stop  offset="0.364" style="stop-color:#142743"/>
	<stop  offset="1" style="stop-color:#0E233A"/>
</linearGradient>
<rect x="-55" y="-29.5" class="st0" width="2082" height="1177"/>
<g>
	<circle class="st6" cx="34" cy="0.5" r="598"/>
	<g>
		<circle class="st1" cx="34" cy="0.5" r="543.6"/>
	</g>
	<g class="st7">
		<path class="st8" d="M577.6,0.5c0,297.6-239.2,539.4-535.9,543.6C313.2,512.8,524,282.2,524,2.3C524-289.6,294.7-528,6.3-542.4
			c9.2-0.5,18.4-0.7,27.7-0.7C334.2-543.1,577.6-299.7,577.6,0.5z"/>
	</g>
</g>
<text transform="matrix(0.7071 -0.7071 0.7071 0.7071 666.2379 404.4323)" class="st5 st11 st12">times</text>
<text transform="matrix(0.7071 -0.7071 0.7071 0.7071 695.1171 280.8476)" class="st5 st11 st13">times</text>
<text transform="matrix(0.7071 -0.7071 0.7071 0.7071 758.2379 347.4323)" class="st5 st11 st12">times</text>
<text transform="matrix(0.7071 -0.7071 0.7071 0.7071 155.1171 708.8477)" class="st5 st11 st13">times</text>
<text transform="matrix(0.7071 -0.7071 0.7071 0.7071 234.2378 771.4323)" class="st14 st11 st12">times</text>
<text transform="matrix(0.7071 -0.7071 0.7071 0.7071 695.2379 886.4323)" class="st5 st11 st12">times</text>
<text transform="matrix(0.7071 -0.7071 0.7071 0.7071 1593.1171 342.8476)" class="st5 st11 st13">times</text>
<text transform="matrix(0.7071 -0.7071 0.7071 0.7071 1656.2378 409.4323)" class="st5 st11 st12">times</text>
<text transform="matrix(0.7071 -0.7071 0.7071 0.7071 138.2378 941.4323)" class="st5 st11 st12">times</text>
<text transform="matrix(0.7071 -0.7071 0.7071 0.7071 1738.2378 912.4323)" class="st5 st11 st12">times</text>
<text transform="matrix(0.7071 -0.7071 0.7071 0.7071 1706.2378 981.4323)" class="st14 st11 st12">times</text>
<text transform="matrix(0.7071 -0.7071 0.7071 0.7071 910.2379 138.4323)" class="st14 st11 st12">times</text>
</svg>
